# xmcd CD database file
#
# Track frame offsets:
#	150
#	14487
#	36432
#	55683
#	82027
#	106120
#	140710
#	161858
#	196518
#	227928
#	256172
#
# Disc length: 3828 seconds
#
# Revision: 1
# Processed by: cddbd v1.5.2PL0 Copyright (c) Steve Scherf et al.
# Submitted via: CDex 1.70beta2
#
DISCID=900ef20b
DTITLE=John Mayer Trio - TRY!
DYEAR=2005
DGENRE=Blues
TTITLE0=Who did you think I was
TTITLE1=Good love is on the way
TTITLE2=Wait until tomorrow
TTITLE3=Gravity
TTITLE4=Vultures
TTITLE5=Out of my mind
TTITLE6=Another kind of green
TTITLE7=I got a woman
TTITLE8=Something's missing
TTITLE9=Daughters
TTITLE10=Try
EXTD=YEAR: 2005
EXTT0=
EXTT1=
EXTT2=
EXTT3=
EXTT4=
EXTT5=
EXTT6=
EXTT7=
EXTT8=
EXTT9=
EXTT10=
PLAYORDER=
